solid OpenSCAD_Model
  facet normal 0 -1 0
    outer loop
      vertex 0 0 1
      vertex 0 0 0
      vertex 1 0 0
    endloop
  endfacet
  facet normal 0 0 -1
    outer loop
      vertex 1 0 0
      vertex 0 0 0
      vertex 0 1 0
    endloop
  endfacet
  facet normal 0.57735 0.57735 0.57735
    outer loop
      vertex 0 1 0
      vertex 0 0 1
      vertex 1 0 0
    endloop
  endfacet
  facet normal -1 0 0
    outer loop
      vertex 0 1 0
      vertex 0 0 0
      vertex 0 0 1
    endloop
  endfacet
  facet normal 0 0 1
    outer loop
      vertex 0.629292 0.0999994 0.0999994
      vertex 0.0999994 0.629292 0.0999994
      vertex 0.0999994 0.0999994 0.0999994
    endloop
  endfacet
  facet normal 1 0 0
    outer loop
      vertex 0.0999994 0.629292 0.0999994
      vertex 0.0999994 0.0999994 0.629292
      vertex 0.0999994 0.0999994 0.0999994
    endloop
  endfacet
  facet normal 0 1 0
    outer loop
      vertex 0.0999994 0.0999994 0.629292
      vertex 0.629292 0.0999994 0.0999994
      vertex 0.0999994 0.0999994 0.0999994
    endloop
  endfacet
  facet normal -0.57735 -0.57735 -0.57735
    outer loop
      vertex 0.0999994 0.629292 0.0999994
      vertex 0.629292 0.0999994 0.0999994
      vertex 0.0999994 0.0999994 0.629292
    endloop
  endfacet
endsolid OpenSCAD_Model
