solid OpenSCAD_Model
  facet normal -1 0 0
    outer loop
      vertex 0 0 0
      vertex 0 50 75
      vertex 0 50 0
    endloop
  endfacet
  facet normal -1 0 0
    outer loop
      vertex 0 50 75
      vertex 0 0 125
      vertex 0 50 125
    endloop
  endfacet
  facet normal -1 -0 0
    outer loop
      vertex 0 50 75
      vertex 0 0 0
      vertex 0 0 125
    endloop
  endfacet
  facet normal -1 0 0
    outer loop
      vertex 0 50 125
      vertex 0 0 125
      vertex 0 50 150
    endloop
  endfacet
  facet normal -1 0 0
    outer loop
      vertex 0 0 125
      vertex 0 0 150
      vertex 0 50 150
    endloop
  endfacet
  facet normal -1 0 0
    outer loop
      vertex 0 -100 125
      vertex 0 0 150
      vertex 0 0 125
    endloop
  endfacet
  facet normal -1 -0 0
    outer loop
      vertex 0 0 150
      vertex 0 -100 125
      vertex 0 -100 150
    endloop
  endfacet
  facet normal -1 0 0
    outer loop
      vertex 0 50 75
      vertex 0 150 125
      vertex 0 150 75
    endloop
  endfacet
  facet normal -1 -0 0
    outer loop
      vertex 0 150 125
      vertex 0 50 75
      vertex 0 50 125
    endloop
  endfacet
  facet normal -0 0 1
    outer loop
      vertex -100 50 200
      vertex 50 0 200
      vertex 50 50 200
    endloop
  endfacet
  facet normal 0 0 1
    outer loop
      vertex 50 0 200
      vertex -100 50 200
      vertex -100 0 200
    endloop
  endfacet
  facet normal 1 -0 0
    outer loop
      vertex 50 0 200
      vertex 50 50 125
      vertex 50 50 200
    endloop
  endfacet
  facet normal 1 0 0
    outer loop
      vertex 50 50 125
      vertex 50 0 200
      vertex 50 50 75
    endloop
  endfacet
  facet normal 1 0 0
    outer loop
      vertex 50 0 0
      vertex 50 50 75
      vertex 50 0 200
    endloop
  endfacet
  facet normal 1 0 0
    outer loop
      vertex 50 50 75
      vertex 50 0 0
      vertex 50 50 0
    endloop
  endfacet
  facet normal 1 -0 0
    outer loop
      vertex 50 50 125
      vertex 50 150 75
      vertex 50 150 125
    endloop
  endfacet
  facet normal 1 0 0
    outer loop
      vertex 50 150 75
      vertex 50 50 125
      vertex 50 50 75
    endloop
  endfacet
  facet normal 0 0 -1
    outer loop
      vertex 0 0 0
      vertex 50 50 0
      vertex 50 0 0
    endloop
  endfacet
  facet normal -0 0 -1
    outer loop
      vertex 50 50 0
      vertex 0 0 0
      vertex 0 50 0
    endloop
  endfacet
  facet normal 0 -1 0
    outer loop
      vertex 0 0 125
      vertex 0 0 0
      vertex 25 0 125
    endloop
  endfacet
  facet normal 0 -1 0
    outer loop
      vertex 0 0 150
      vertex -100 0 200
      vertex -100 0 150
    endloop
  endfacet
  facet normal 0 -1 0
    outer loop
      vertex -100 0 200
      vertex 0 0 150
      vertex 50 0 200
    endloop
  endfacet
  facet normal 0 -1 0
    outer loop
      vertex 25 0 150
      vertex 50 0 200
      vertex 0 0 150
    endloop
  endfacet
  facet normal 0 -1 0
    outer loop
      vertex 25 0 125
      vertex 50 0 200
      vertex 25 0 150
    endloop
  endfacet
  facet normal 0 -1 0
    outer loop
      vertex 50 0 0
      vertex 25 0 125
      vertex 0 0 0
    endloop
  endfacet
  facet normal 0 -1 0
    outer loop
      vertex 25 0 125
      vertex 50 0 0
      vertex 50 0 200
    endloop
  endfacet
  facet normal 0 1 0
    outer loop
      vertex 50 50 200
      vertex 0 50 150
      vertex -100 50 200
    endloop
  endfacet
  facet normal 0 1 -0
    outer loop
      vertex 50 50 125
      vertex 0 50 150
      vertex 50 50 200
    endloop
  endfacet
  facet normal 0 1 0
    outer loop
      vertex 0 50 150
      vertex 50 50 125
      vertex 0 50 125
    endloop
  endfacet
  facet normal 0 1 0
    outer loop
      vertex -100 50 200
      vertex 0 50 150
      vertex -100 50 150
    endloop
  endfacet
  facet normal 0 1 -0
    outer loop
      vertex 50 50 0
      vertex 0 50 75
      vertex 50 50 75
    endloop
  endfacet
  facet normal 0 1 0
    outer loop
      vertex 0 50 75
      vertex 50 50 0
      vertex 0 50 0
    endloop
  endfacet
  facet normal -0 0 1
    outer loop
      vertex 0 150 125
      vertex 50 50 125
      vertex 50 150 125
    endloop
  endfacet
  facet normal 0 0 1
    outer loop
      vertex 50 50 125
      vertex 0 150 125
      vertex 0 50 125
    endloop
  endfacet
  facet normal 0 1 -0
    outer loop
      vertex 50 150 75
      vertex 0 150 125
      vertex 50 150 125
    endloop
  endfacet
  facet normal 0 1 0
    outer loop
      vertex 0 150 125
      vertex 50 150 75
      vertex 0 150 75
    endloop
  endfacet
  facet normal 0 0 -1
    outer loop
      vertex 0 50 75
      vertex 50 150 75
      vertex 50 50 75
    endloop
  endfacet
  facet normal -0 0 -1
    outer loop
      vertex 50 150 75
      vertex 0 50 75
      vertex 0 150 75
    endloop
  endfacet
  facet normal -1 0 0
    outer loop
      vertex -100 0 150
      vertex -100 50 200
      vertex -100 50 150
    endloop
  endfacet
  facet normal -1 -0 0
    outer loop
      vertex -100 50 200
      vertex -100 0 150
      vertex -100 0 200
    endloop
  endfacet
  facet normal 0 0 -1
    outer loop
      vertex -100 0 150
      vertex 0 50 150
      vertex 0 0 150
    endloop
  endfacet
  facet normal -0 0 -1
    outer loop
      vertex 0 50 150
      vertex -100 0 150
      vertex -100 50 150
    endloop
  endfacet
  facet normal -0 0 1
    outer loop
      vertex 0 0 150
      vertex 25 -100 150
      vertex 25 0 150
    endloop
  endfacet
  facet normal 0 0 1
    outer loop
      vertex 25 -100 150
      vertex 0 0 150
      vertex 0 -100 150
    endloop
  endfacet
  facet normal 1 -0 0
    outer loop
      vertex 25 -100 150
      vertex 25 0 125
      vertex 25 0 150
    endloop
  endfacet
  facet normal 1 0 0
    outer loop
      vertex 25 0 125
      vertex 25 -100 150
      vertex 25 -100 125
    endloop
  endfacet
  facet normal 0 0 -1
    outer loop
      vertex 0 -100 125
      vertex 25 0 125
      vertex 25 -100 125
    endloop
  endfacet
  facet normal -0 0 -1
    outer loop
      vertex 25 0 125
      vertex 0 -100 125
      vertex 0 0 125
    endloop
  endfacet
  facet normal 0 -1 0
    outer loop
      vertex 0 -100 125
      vertex 25 -100 150
      vertex 0 -100 150
    endloop
  endfacet
  facet normal 0 -1 -0
    outer loop
      vertex 25 -100 150
      vertex 0 -100 125
      vertex 25 -100 125
    endloop
  endfacet
endsolid OpenSCAD_Model
