solid site model
facet normal 0.0 0.0 1.0
  outer loop
    vertex 240.0 159.663533243323 16.0
    vertex 186.582501616533 205.081059422941 16.0
    vertex 178.375537998578 179.21980470787 16.0
  endloop
endfacet
facet normal 0.0 0.0 1.0
  outer loop
    vertex 186.582501616533 205.081059422941 16.0
    vertex 240.0 159.663533243323 16.0
    vertex 189.685641096946 205.920153687739 16.0
  endloop
endfacet
facet normal 0.0 0.0 1.0
  outer loop
    vertex 189.685641096946 205.920153687739 16.0
    vertex 240.0 159.663533243323 16.0
    vertex 193.690766116655 207.003146397236 16.0
  endloop
endfacet
facet normal 0.0 0.0 1.0
  outer loop
    vertex 193.690766116655 207.003146397236 16.0
    vertex 240.0 159.663533243323 16.0
    vertex 201.198201444404 209.033169851425 16.0
  endloop
endfacet
facet normal 0.0 0.0 1.0
  outer loop
    vertex 201.198201444404 209.033169851425 16.0
    vertex 240.0 159.663533243323 16.0
    vertex 240.0 196.719577469095 16.0
  endloop
endfacet
facet normal 1.0 0.0 0.0
  outer loop
    vertex 240.0 196.719577469095 0.0
    vertex 240.0 159.663533243323 16.0
    vertex 240.0 159.663533243323 0.0
  endloop
endfacet
facet normal 1.0 0.0 0.0
  outer loop
    vertex 240.0 159.663533243323 16.0
    vertex 240.0 196.719577469095 0.0
    vertex 240.0 196.719577469095 16.0
  endloop
endfacet
facet normal -0.261027281165502 0.965331424168584 0.0
  outer loop
    vertex 189.685641096946 205.920153687739 16.0
    vertex 193.690766116655 207.003146397236 0.0
    vertex 189.685641096946 205.920153687739 0.0
  endloop
endfacet
facet normal -0.261027281165502 0.965331424168584 0.0
  outer loop
    vertex 193.690766116655 207.003146397236 0.0
    vertex 189.685641096946 205.920153687739 16.0
    vertex 193.690766116655 207.003146397236 16.0
  endloop
endfacet
facet normal -0.261027281165499 0.965331424168584 0.0
  outer loop
    vertex 193.690766116655 207.003146397236 16.0
    vertex 201.198201444404 209.033169851425 0.0
    vertex 193.690766116655 207.003146397236 0.0
  endloop
endfacet
facet normal -0.261027281165499 0.965331424168584 0.0
  outer loop
    vertex 201.198201444404 209.033169851425 0.0
    vertex 193.690766116655 207.003146397236 16.0
    vertex 201.198201444404 209.033169851425 16.0
  endloop
endfacet
facet normal -0.953155708790171 0.302480073394442 0.0
  outer loop
    vertex 186.582501616533 205.081059422941 16.0
    vertex 178.375537998578 179.21980470787 0.0
    vertex 178.375537998578 179.21980470787 16.0
  endloop
endfacet
facet normal -0.953155708790171 0.302480073394442 0.0
  outer loop
    vertex 178.375537998578 179.21980470787 0.0
    vertex 186.582501616533 205.081059422941 16.0
    vertex 186.582501616533 205.081059422941 0.0
  endloop
endfacet
facet normal -0.302480073394438 -0.953155708790172 0.0
  outer loop
    vertex 240.0 159.663533243323 16.0
    vertex 178.375537998578 179.21980470787 0.0
    vertex 240.0 159.663533243323 0.0
  endloop
endfacet
facet normal -0.302480073394438 -0.953155708790172 0.0
  outer loop
    vertex 178.375537998578 179.21980470787 0.0
    vertex 240.0 159.663533243323 16.0
    vertex 178.375537998578 179.21980470787 16.0
  endloop
endfacet
facet normal -0.261027281165492 0.965331424168586 0.0
  outer loop
    vertex 186.582501616533 205.081059422941 16.0
    vertex 189.685641096946 205.920153687739 0.0
    vertex 186.582501616533 205.081059422941 0.0
  endloop
endfacet
facet normal -0.261027281165492 0.965331424168586 0.0
  outer loop
    vertex 189.685641096946 205.920153687739 0.0
    vertex 186.582501616533 205.081059422941 16.0
    vertex 189.685641096946 205.920153687739 16.0
  endloop
endfacet
facet normal 0.302480073394438 0.953155708790172 0.0
  outer loop
    vertex 201.198201444404 209.033169851425 16.0
    vertex 240.0 196.719577469095 0.0
    vertex 201.198201444404 209.033169851425 0.0
  endloop
endfacet
facet normal 0.302480073394438 0.953155708790172 0.0
  outer loop
    vertex 240.0 196.719577469095 0.0
    vertex 201.198201444404 209.033169851425 16.0
    vertex 240.0 196.719577469095 16.0
  endloop
endfacet
facet normal 0.0 0.0 -1.0
  outer loop
    vertex 186.582501616533 205.081059422941 0.0
    vertex 240.0 159.663533243323 0.0
    vertex 178.375537998578 179.21980470787 0.0
  endloop
endfacet
facet normal 0.0 0.0 -1.0
  outer loop
    vertex 240.0 159.663533243323 0.0
    vertex 186.582501616533 205.081059422941 0.0
    vertex 189.685641096946 205.920153687739 0.0
  endloop
endfacet
facet normal 0.0 0.0 -1.0
  outer loop
    vertex 240.0 159.663533243323 0.0
    vertex 189.685641096946 205.920153687739 0.0
    vertex 193.690766116655 207.003146397236 0.0
  endloop
endfacet
facet normal 0.0 0.0 -1.0
  outer loop
    vertex 240.0 159.663533243323 0.0
    vertex 193.690766116655 207.003146397236 0.0
    vertex 201.198201444404 209.033169851425 0.0
  endloop
endfacet
facet normal 0.0 0.0 -1.0
  outer loop
    vertex 240.0 159.663533243323 0.0
    vertex 201.198201444404 209.033169851425 0.0
    vertex 240.0 196.719577469095 0.0
  endloop
endfacet
endsolid site model
