solid site model
facet normal 0.0 0.0 1.0
  outer loop
    vertex 15.406513142405 140.244808926091 16.0
    vertex 69.1868760054225 204.486104913247 16.0
    vertex 0.406395290888926 172.221544010597 16.0
  endloop
endfacet
facet normal 0.0 0.0 1.0
  outer loop
    vertex 69.1868760054225 204.486104913247 16.0
    vertex 15.406513142405 140.244808926091 16.0
    vertex 74.2745592188096 167.859498996886 16.0
  endloop
endfacet
facet normal 0.0 0.0 1.0
  outer loop
    vertex 69.1868760054225 204.486104913247 16.0
    vertex 74.2745592188096 167.859498996886 16.0
    vertex 76.3903799746604 171.197492999899 16.0
  endloop
endfacet
facet normal 0.0 0.0 1.0
  outer loop
    vertex 69.1868760054225 204.486104913247 16.0
    vertex 76.3903799746604 171.197492999899 16.0
    vertex 78.3512361434135 174.291009364161 16.0
  endloop
endfacet
facet normal 0.0 0.0 1.0
  outer loop
    vertex 69.1868760054225 204.486104913247 16.0
    vertex 78.3512361434135 174.291009364161 16.0
    vertex 81.2246994332687 178.824287149102 16.0
  endloop
endfacet
facet normal 0.844617955966245 -0.535369506471374 0.0
  outer loop
    vertex 76.3903799746604 171.197492999899 0.0
    vertex 74.2745592188096 167.859498996886 16.0
    vertex 74.2745592188096 167.859498996886 0.0
  endloop
endfacet
facet normal 0.844617955966245 -0.535369506471374 0.0
  outer loop
    vertex 74.2745592188096 167.859498996886 16.0
    vertex 76.3903799746604 171.197492999899 0.0
    vertex 76.3903799746604 171.197492999899 16.0
  endloop
endfacet
facet normal 0.424689732880245 -0.905338959056831 0.0
  outer loop
    vertex 74.2745592188096 167.859498996886 16.0
    vertex 15.406513142405 140.244808926091 0.0
    vertex 74.2745592188096 167.859498996886 0.0
  endloop
endfacet
facet normal 0.424689732880245 -0.905338959056831 0.0
  outer loop
    vertex 15.406513142405 140.244808926091 0.0
    vertex 74.2745592188096 167.859498996886 16.0
    vertex 15.406513142405 140.244808926091 16.0
  endloop
endfacet
facet normal 0.844617955966244 -0.535369506471375 0.0
  outer loop
    vertex 81.2246994332687 178.824287149102 0.0
    vertex 78.3512361434135 174.291009364161 16.0
    vertex 78.3512361434135 174.291009364161 0.0
  endloop
endfacet
facet normal 0.844617955966244 -0.535369506471375 0.0
  outer loop
    vertex 78.3512361434135 174.291009364161 16.0
    vertex 81.2246994332687 178.824287149102 0.0
    vertex 81.2246994332687 178.824287149102 16.0
  endloop
endfacet
facet normal 0.844617955966244 -0.535369506471375 0.0
  outer loop
    vertex 78.3512361434135 174.291009364161 0.0
    vertex 76.3903799746604 171.197492999899 16.0
    vertex 76.3903799746604 171.197492999899 0.0
  endloop
endfacet
facet normal 0.844617955966244 -0.535369506471375 0.0
  outer loop
    vertex 76.3903799746604 171.197492999899 16.0
    vertex 78.3512361434135 174.291009364161 0.0
    vertex 78.3512361434135 174.291009364161 16.0
  endloop
endfacet
facet normal 0.905338959056829 0.424689732880249 0.0
  outer loop
    vertex 69.1868760054225 204.486104913247 0.0
    vertex 81.2246994332687 178.824287149102 16.0
    vertex 81.2246994332687 178.824287149102 0.0
  endloop
endfacet
facet normal 0.905338959056829 0.424689732880249 0.0
  outer loop
    vertex 81.2246994332687 178.824287149102 16.0
    vertex 69.1868760054225 204.486104913247 0.0
    vertex 69.1868760054225 204.486104913247 16.0
  endloop
endfacet
facet normal -0.905338959056831 -0.424689732880245 -0.0
  outer loop
    vertex 0.406395290888926 172.221544010597 16.0
    vertex 15.406513142405 140.244808926091 0.0
    vertex 15.406513142405 140.244808926091 16.0
  endloop
endfacet
facet normal -0.905338959056831 -0.424689732880245 -0.0
  outer loop
    vertex 15.406513142405 140.244808926091 0.0
    vertex 0.406395290888926 172.221544010597 16.0
    vertex 0.406395290888926 172.221544010597 0.0
  endloop
endfacet
facet normal -0.424689732880248 0.90533895905683 0.0
  outer loop
    vertex 0.406395290888926 172.221544010597 16.0
    vertex 69.1868760054225 204.486104913247 0.0
    vertex 0.406395290888926 172.221544010597 0.0
  endloop
endfacet
facet normal -0.424689732880248 0.90533895905683 0.0
  outer loop
    vertex 69.1868760054225 204.486104913247 0.0
    vertex 0.406395290888926 172.221544010597 16.0
    vertex 69.1868760054225 204.486104913247 16.0
  endloop
endfacet
facet normal 0.0 0.0 -1.0
  outer loop
    vertex 69.1868760054225 204.486104913247 0.0
    vertex 15.406513142405 140.244808926091 0.0
    vertex 0.406395290888926 172.221544010597 0.0
  endloop
endfacet
facet normal 0.0 0.0 -1.0
  outer loop
    vertex 15.406513142405 140.244808926091 0.0
    vertex 69.1868760054225 204.486104913247 0.0
    vertex 74.2745592188096 167.859498996886 0.0
  endloop
endfacet
facet normal 0.0 0.0 -1.0
  outer loop
    vertex 74.2745592188096 167.859498996886 0.0
    vertex 69.1868760054225 204.486104913247 0.0
    vertex 76.3903799746604 171.197492999899 0.0
  endloop
endfacet
facet normal 0.0 0.0 -1.0
  outer loop
    vertex 76.3903799746604 171.197492999899 0.0
    vertex 69.1868760054225 204.486104913247 0.0
    vertex 78.3512361434135 174.291009364161 0.0
  endloop
endfacet
facet normal 0.0 0.0 -1.0
  outer loop
    vertex 78.3512361434135 174.291009364161 0.0
    vertex 69.1868760054225 204.486104913247 0.0
    vertex 81.2246994332687 178.824287149102 0.0
  endloop
endfacet
endsolid site model
