solid site model
facet normal 0.0 0.0 1.0
  outer loop
    vertex 140.471062082933 275.668128101037 16.0
    vertex 163.208141433144 343.066894875343 16.0
    vertex 138.957346565061 284.139505773973 16.0
  endloop
endfacet
facet normal 0.0 0.0 1.0
  outer loop
    vertex 163.208141433144 343.066894875343 16.0
    vertex 140.471062082933 275.668128101037 16.0
    vertex 141.115316631657 272.062613369032 16.0
  endloop
endfacet
facet normal 0.0 0.0 1.0
  outer loop
    vertex 163.208141433144 343.066894875343 16.0
    vertex 141.115316631657 272.062613369032 16.0
    vertex 141.512179415186 269.841605204739 16.0
  endloop
endfacet
facet normal 0.0 0.0 1.0
  outer loop
    vertex 163.208141433144 343.066894875343 16.0
    vertex 141.512179415186 269.841605204739 16.0
    vertex 166.957889223269 259.369756744475 16.0
  endloop
endfacet
facet normal 0.0 0.0 1.0
  outer loop
    vertex 163.208141433144 343.066894875343 16.0
    vertex 166.957889223269 259.369756744475 16.0
    vertex 195.870557469319 329.625105526308 16.0
  endloop
endfacet
facet normal -0.984408073224996 -0.175899816286007 -0.0
  outer loop
    vertex 140.471062082933 275.668128101037 16.0
    vertex 141.115316631657 272.062613369032 0.0
    vertex 141.115316631657 272.062613369032 16.0
  endloop
endfacet
facet normal -0.984408073224996 -0.175899816286007 -0.0
  outer loop
    vertex 141.115316631657 272.062613369032 0.0
    vertex 140.471062082933 275.668128101037 16.0
    vertex 140.471062082933 275.668128101037 0.0
  endloop
endfacet
facet normal -0.984408073224995 -0.175899816286014 -0.0
  outer loop
    vertex 138.957346565061 284.139505773973 16.0
    vertex 140.471062082933 275.668128101037 0.0
    vertex 140.471062082933 275.668128101037 16.0
  endloop
endfacet
facet normal -0.984408073224995 -0.175899816286014 -0.0
  outer loop
    vertex 140.471062082933 275.668128101037 0.0
    vertex 138.957346565061 284.139505773973 16.0
    vertex 138.957346565061 284.139505773973 0.0
  endloop
endfacet
facet normal 0.380569671824113 0.924752250544808 0.0
  outer loop
    vertex 163.208141433144 343.066894875343 16.0
    vertex 195.870557469319 329.625105526308 0.0
    vertex 163.208141433144 343.066894875343 0.0
  endloop
endfacet
facet normal 0.380569671824113 0.924752250544808 0.0
  outer loop
    vertex 195.870557469319 329.625105526308 0.0
    vertex 163.208141433144 343.066894875343 16.0
    vertex 195.870557469319 329.625105526308 16.0
  endloop
endfacet
facet normal -0.984408073224995 -0.175899816286013 -0.0
  outer loop
    vertex 141.115316631657 272.062613369032 16.0
    vertex 141.512179415186 269.841605204739 0.0
    vertex 141.512179415186 269.841605204739 16.0
  endloop
endfacet
facet normal -0.984408073224995 -0.175899816286013 -0.0
  outer loop
    vertex 141.512179415186 269.841605204739 0.0
    vertex 141.115316631657 272.062613369032 16.0
    vertex 141.115316631657 272.062613369032 0.0
  endloop
endfacet
facet normal -0.380569671824113 -0.924752250544808 -0.0
  outer loop
    vertex 166.957889223269 259.369756744475 16.0
    vertex 141.512179415186 269.841605204739 0.0
    vertex 166.957889223269 259.369756744475 0.0
  endloop
endfacet
facet normal -0.380569671824113 -0.924752250544808 -0.0
  outer loop
    vertex 141.512179415186 269.841605204739 0.0
    vertex 166.957889223269 259.369756744475 16.0
    vertex 141.512179415186 269.841605204739 16.0
  endloop
endfacet
facet normal 0.924752250544808 -0.380569671824113 0.0
  outer loop
    vertex 195.870557469319 329.625105526308 0.0
    vertex 166.957889223269 259.369756744475 16.0
    vertex 166.957889223269 259.369756744475 0.0
  endloop
endfacet
facet normal 0.924752250544808 -0.380569671824113 0.0
  outer loop
    vertex 166.957889223269 259.369756744475 16.0
    vertex 195.870557469319 329.625105526308 0.0
    vertex 195.870557469319 329.625105526308 16.0
  endloop
endfacet
facet normal -0.924752250544808 0.380569671824112 0.0
  outer loop
    vertex 163.208141433144 343.066894875343 16.0
    vertex 138.957346565061 284.139505773973 0.0
    vertex 138.957346565061 284.139505773973 16.0
  endloop
endfacet
facet normal -0.924752250544808 0.380569671824112 0.0
  outer loop
    vertex 138.957346565061 284.139505773973 0.0
    vertex 163.208141433144 343.066894875343 16.0
    vertex 163.208141433144 343.066894875343 0.0
  endloop
endfacet
facet normal 0.0 0.0 -1.0
  outer loop
    vertex 163.208141433144 343.066894875343 0.0
    vertex 140.471062082933 275.668128101037 0.0
    vertex 138.957346565061 284.139505773973 0.0
  endloop
endfacet
facet normal 0.0 0.0 -1.0
  outer loop
    vertex 140.471062082933 275.668128101037 0.0
    vertex 163.208141433144 343.066894875343 0.0
    vertex 141.115316631657 272.062613369032 0.0
  endloop
endfacet
facet normal 0.0 0.0 -1.0
  outer loop
    vertex 141.115316631657 272.062613369032 0.0
    vertex 163.208141433144 343.066894875343 0.0
    vertex 141.512179415186 269.841605204739 0.0
  endloop
endfacet
facet normal 0.0 0.0 -1.0
  outer loop
    vertex 141.512179415186 269.841605204739 0.0
    vertex 163.208141433144 343.066894875343 0.0
    vertex 166.957889223269 259.369756744475 0.0
  endloop
endfacet
facet normal 0.0 0.0 -1.0
  outer loop
    vertex 166.957889223269 259.369756744475 0.0
    vertex 163.208141433144 343.066894875343 0.0
    vertex 195.870557469319 329.625105526308 0.0
  endloop
endfacet
endsolid site model
