solid site model
facet normal 0.0 0.0 1.0
  outer loop
    vertex 89.6025834380755 118.179894401865 16.0
    vertex 100.443658254605 201.25662180858 16.0
    vertex 59.7705251185191 137.089241789934 16.0
  endloop
endfacet
facet normal 0.0 0.0 1.0
  outer loop
    vertex 100.443658254605 201.25662180858 16.0
    vertex 89.6025834380755 118.179894401865 16.0
    vertex 130.275716574161 182.347274420511 16.0
  endloop
endfacet
facet normal 0.535369506471377 0.844617955966243 0.0
  outer loop
    vertex 100.443658254605 201.25662180858 16.0
    vertex 130.275716574161 182.347274420511 0.0
    vertex 100.443658254605 201.25662180858 0.0
  endloop
endfacet
facet normal 0.535369506471377 0.844617955966243 0.0
  outer loop
    vertex 130.275716574161 182.347274420511 0.0
    vertex 100.443658254605 201.25662180858 16.0
    vertex 130.275716574161 182.347274420511 16.0
  endloop
endfacet
facet normal 0.844617955966245 -0.535369506471374 0.0
  outer loop
    vertex 130.275716574161 182.347274420511 0.0
    vertex 89.6025834380755 118.179894401865 16.0
    vertex 89.6025834380755 118.179894401865 0.0
  endloop
endfacet
facet normal 0.844617955966245 -0.535369506471374 0.0
  outer loop
    vertex 89.6025834380755 118.179894401865 16.0
    vertex 130.275716574161 182.347274420511 0.0
    vertex 130.275716574161 182.347274420511 16.0
  endloop
endfacet
facet normal -0.844617955966243 0.535369506471376 0.0
  outer loop
    vertex 100.443658254605 201.25662180858 16.0
    vertex 59.7705251185191 137.089241789934 0.0
    vertex 59.7705251185191 137.089241789934 16.0
  endloop
endfacet
facet normal -0.844617955966243 0.535369506471376 0.0
  outer loop
    vertex 59.7705251185191 137.089241789934 0.0
    vertex 100.443658254605 201.25662180858 16.0
    vertex 100.443658254605 201.25662180858 0.0
  endloop
endfacet
facet normal -0.535369506471372 -0.844617955966246 -0.0
  outer loop
    vertex 89.6025834380755 118.179894401865 16.0
    vertex 59.7705251185191 137.089241789934 0.0
    vertex 89.6025834380755 118.179894401865 0.0
  endloop
endfacet
facet normal -0.535369506471372 -0.844617955966246 -0.0
  outer loop
    vertex 59.7705251185191 137.089241789934 0.0
    vertex 89.6025834380755 118.179894401865 16.0
    vertex 59.7705251185191 137.089241789934 16.0
  endloop
endfacet
facet normal 0.0 0.0 -1.0
  outer loop
    vertex 100.443658254605 201.25662180858 0.0
    vertex 89.6025834380755 118.179894401865 0.0
    vertex 59.7705251185191 137.089241789934 0.0
  endloop
endfacet
facet normal 0.0 0.0 -1.0
  outer loop
    vertex 89.6025834380755 118.179894401865 0.0
    vertex 100.443658254605 201.25662180858 0.0
    vertex 130.275716574161 182.347274420511 0.0
  endloop
endfacet
endsolid site model
